<?xml version="1.0" standalone="no"?>
<!DOCTYPE svg PUBLIC "-//W3C//DTD SVG 20010904//EN"
 "http://www.w3.org/TR/2001/REC-SVG-20010904/DTD/svg10.dtd">
<svg version="1.0" xmlns="http://www.w3.org/2000/svg"
 width="2000.000000pt" height="2000.000000pt" viewBox="0 0 2000.000000 2000.000000"
 preserveAspectRatio="xMidYMid meet">
<metadata>
Created by potrace 1.14, written by Peter Selinger 2001-2017
</metadata>
<g transform="translate(0.000000,2000.000000) scale(0.100000,-0.100000)"
fill="#000000" stroke="none">
<path d="M6500 15109 c-25 -10 -42 -18 -38 -18 4 -1 -12 -20 -35 -43 -36 -37
-80 -94 -177 -233 -11 -16 -44 -62 -73 -101 -29 -40 -58 -80 -65 -90 -45 -68
-86 -125 -152 -216 -41 -56 -88 -123 -104 -148 -16 -25 -45 -65 -65 -90 -20
-25 -56 -74 -81 -110 -38 -56 -64 -92 -99 -136 -5 -6 -12 -20 -15 -32 -4 -12
-12 -22 -17 -22 -5 0 -24 -22 -41 -50 -17 -27 -35 -50 -39 -50 -4 0 -11 -10
-15 -22 -4 -13 -20 -42 -35 -65 -16 -23 -29 -45 -29 -50 0 -4 -7 -21 -16 -38
-21 -41 -23 -195 -2 -195 4 0 8 -6 8 -13 0 -8 11 -27 25 -43 14 -16 31 -41 38
-56 6 -16 15 -28 19 -28 5 0 8 -6 8 -14 0 -8 4 -16 9 -18 5 -1 11 -9 13 -17 6
-26 81 -109 137 -151 18 -14 46 -36 62 -48 16 -13 29 -21 29 -17 0 3 10 -3 22
-15 12 -11 28 -20 35 -20 8 0 12 -4 9 -9 -3 -5 4 -11 17 -15 12 -3 31 -13 42
-23 11 -10 36 -30 55 -43 19 -14 45 -36 57 -50 11 -14 35 -41 53 -60 17 -19
45 -60 63 -90 17 -30 33 -57 36 -60 3 -3 7 -15 9 -28 2 -12 10 -35 18 -50 7
-15 14 -34 14 -43 0 -9 3 -19 7 -23 4 -4 8 -17 9 -29 1 -12 5 -35 9 -52 12
-49 14 -326 3 -375 -5 -25 -12 -58 -14 -75 -3 -16 -8 -37 -11 -45 -3 -8 -7
-22 -8 -30 -5 -31 -58 -180 -65 -180 -4 0 -7 -6 -7 -14 0 -17 -55 -130 -65
-134 -5 -2 -8 -8 -8 -13 0 -15 -80 -140 -143 -222 -72 -96 -251 -278 -329
-337 -32 -23 -58 -46 -58 -51 0 -5 -6 -9 -14 -9 -8 0 -16 -3 -18 -7 -1 -5 -41
-33 -88 -63 -47 -30 -87 -57 -90 -61 -3 -3 -32 -23 -64 -45 -106 -70 -131 -87
-136 -93 -3 -3 -30 -19 -60 -34 -69 -36 -114 -61 -120 -67 -3 -3 -17 -11 -32
-19 -16 -8 -28 -18 -28 -23 0 -4 -6 -8 -14 -8 -7 0 -19 -7 -26 -15 -7 -9 -15
-13 -18 -11 -3 3 -17 -3 -31 -13 -14 -10 -30 -20 -36 -22 -9 -4 -263 -153
-345 -203 -19 -12 -44 -27 -55 -34 -17 -10 -63 -36 -125 -71 -28 -15 -55 -31
-82 -49 -54 -35 -118 -72 -122 -69 -2 1 -12 -5 -22 -14 -11 -9 -46 -31 -79
-49 -33 -19 -61 -37 -63 -42 -2 -4 -8 -8 -12 -8 -12 0 -264 -151 -271 -162 -3
-6 -10 -9 -14 -8 -4 2 -28 -12 -53 -31 -26 -18 -53 -34 -59 -35 -7 -1 -19 -8
-26 -16 -7 -7 -30 -22 -50 -33 -20 -11 -37 -23 -37 -27 0 -5 -5 -8 -11 -8 -6
0 -42 -22 -80 -50 -38 -27 -73 -50 -79 -50 -5 0 -10 -4 -10 -10 0 -5 -6 -10
-14 -10 -8 0 -16 -7 -20 -15 -3 -8 -10 -15 -16 -15 -12 0 -80 -48 -92 -65 -4
-6 -8 -6 -8 -1 0 6 -6 3 -12 -6 -12 -14 -107 -88 -146 -113 -9 -5 -25 -19 -36
-30 -12 -11 -43 -37 -71 -58 -110 -84 -380 -343 -435 -417 -14 -18 -35 -46
-47 -61 -13 -15 -23 -32 -23 -38 0 -6 -4 -11 -8 -11 -5 0 -26 -25 -47 -55 -20
-30 -41 -55 -46 -55 -4 0 -11 -10 -15 -22 -3 -12 -21 -53 -39 -92 -106 -230
-122 -279 -131 -397 -3 -51 0 -82 15 -126 16 -45 20 -81 19 -160 l-2 -102 44
-77 c69 -120 340 -387 340 -334 0 19 35 1 41 -21 7 -30 28 -69 43 -85 6 -6 45
-48 86 -93 41 -46 100 -109 130 -141 30 -32 75 -81 100 -110 25 -28 61 -68 80
-89 19 -20 73 -79 120 -130 47 -51 101 -110 120 -131 19 -21 69 -75 110 -121
41 -45 91 -99 110 -119 19 -20 67 -73 105 -116 39 -43 91 -101 118 -127 26
-26 47 -51 47 -54 0 -3 11 -16 26 -29 14 -13 23 -24 21 -24 -2 0 35 -40 83
-90 48 -49 99 -104 113 -122 14 -18 56 -65 94 -104 37 -40 93 -100 123 -134
30 -34 73 -81 95 -104 22 -23 51 -57 65 -74 14 -18 28 -32 32 -32 4 0 22 -14
40 -31 30 -27 81 -60 101 -65 4 -1 8 -2 10 -3 15 -13 79 -16 122 -6 54 11 74
29 260 230 66 72 129 139 140 151 11 11 34 37 52 57 39 45 75 53 113 26 15
-11 47 -23 71 -26 24 -3 69 -17 99 -31 42 -19 71 -25 125 -25 89 0 131 19 198
87 58 59 59 60 107 136 19 30 38 58 43 61 5 3 8 9 8 13 0 3 10 30 23 58 21 48
36 85 41 98 14 41 77 148 107 185 13 15 40 45 61 67 20 23 37 45 37 50 0 4 6
8 13 8 8 0 20 11 27 25 7 14 16 25 20 25 3 0 23 16 43 35 20 19 37 32 37 28 0
-4 6 2 14 13 28 40 256 181 270 167 3 -4 6 -1 6 6 0 10 31 27 65 35 17 5 49
17 66 26 59 31 255 67 404 74 50 2 97 6 105 9 63 18 94 47 125 121 23 55 79
236 91 294 3 13 11 43 20 65 8 23 17 52 20 65 9 42 55 187 65 205 5 10 7 22 4
27 -4 6 -1 10 4 10 6 0 11 6 11 14 0 18 111 235 136 266 50 62 122 126 154
137 87 30 197 10 367 -68 23 -10 45 -19 49 -19 9 0 108 -73 112 -82 2 -5 9 -8
16 -8 6 0 19 -9 29 -20 9 -11 23 -20 31 -20 8 0 16 -3 18 -8 2 -4 38 -32 81
-62 43 -30 114 -81 158 -113 43 -31 83 -57 88 -57 5 0 11 -3 13 -8 3 -8 80
-64 248 -182 174 -123 224 -158 243 -175 9 -8 22 -15 27 -15 6 0 10 -4 10 -10
0 -5 5 -10 11 -10 9 0 72 -42 89 -60 3 -3 24 -18 48 -34 23 -16 42 -33 42 -38
0 -5 4 -7 10 -3 5 3 18 -3 30 -15 11 -11 22 -20 25 -20 3 0 18 -11 33 -25 15
-14 30 -25 35 -25 4 0 13 -5 20 -10 20 -17 138 -101 207 -149 36 -25 70 -50
77 -55 6 -6 41 -31 78 -56 36 -25 78 -55 93 -67 15 -13 32 -23 39 -23 6 0 13
-4 15 -9 2 -4 46 -38 98 -74 52 -37 100 -70 105 -74 6 -5 39 -29 75 -53 36
-25 67 -47 70 -50 18 -18 90 -70 118 -84 17 -9 32 -20 32 -24 0 -4 9 -12 19
-17 16 -8 227 -156 460 -323 99 -72 147 -75 185 -12 9 17 21 30 27 30 5 0 9 5
9 10 0 6 16 33 36 61 41 59 45 72 48 159 2 65 13 98 46 135 10 11 35 45 57 77
94 139 177 253 185 256 4 2 8 8 8 12 0 5 21 39 48 75 26 37 52 74 57 83 6 9
19 29 30 43 11 14 27 36 35 49 8 12 35 50 60 85 25 34 50 69 55 77 43 67 191
277 215 306 6 6 7 12 3 12 -15 0 84 92 137 128 170 113 415 155 531 90 46 -26
187 -124 227 -157 12 -11 22 -17 22 -15 0 5 20 -10 55 -42 13 -12 26 -20 28
-18 2 2 12 -5 22 -16 10 -11 22 -20 27 -20 5 0 35 -19 66 -42 31 -24 61 -46
67 -50 5 -4 41 -30 78 -58 37 -27 70 -50 73 -50 2 0 37 -24 77 -53 39 -30 90
-65 113 -80 22 -14 47 -31 55 -39 8 -7 31 -24 51 -38 21 -14 38 -28 38 -32 0
-5 5 -8 11 -8 6 0 38 -20 70 -45 33 -25 63 -45 68 -45 5 0 14 -7 21 -15 7 -8
49 -39 94 -69 44 -30 91 -64 104 -76 12 -11 22 -18 22 -15 0 4 7 0 15 -7 33
-30 45 -38 54 -38 5 0 11 -3 13 -8 2 -4 50 -41 108 -81 58 -41 108 -80 112
-85 4 -6 8 -7 8 -3 0 4 40 -23 89 -60 50 -37 120 -88 156 -113 36 -25 75 -53
87 -62 12 -10 24 -18 28 -18 3 0 15 -8 26 -17 11 -10 45 -35 77 -57 31 -21 57
-42 57 -47 0 -5 3 -8 8 -7 8 3 58 -28 86 -54 11 -10 25 -18 32 -18 6 0 14 -7
18 -15 3 -8 10 -15 16 -15 6 0 23 -11 38 -25 15 -14 32 -25 39 -25 7 0 13 -3
13 -8 0 -4 34 -30 75 -57 41 -28 75 -53 75 -57 0 -5 5 -8 11 -8 6 0 37 -20 69
-45 32 -25 63 -45 68 -45 6 0 12 -4 14 -8 5 -12 116 -92 128 -92 5 0 10 -4 10
-8 0 -4 12 -15 28 -24 15 -9 37 -25 49 -35 12 -10 45 -34 73 -53 67 -46 152
-108 167 -120 7 -6 16 -10 22 -10 5 0 11 -7 15 -15 3 -8 10 -15 16 -15 7 0 37
-19 68 -43 31 -23 69 -49 85 -56 15 -8 27 -18 27 -23 0 -5 5 -6 11 -3 5 4 18
-3 29 -15 10 -12 20 -20 22 -19 4 3 82 -33 88 -41 3 -4 46 -26 95 -50 75 -37
99 -44 145 -44 90 2 121 14 184 76 17 15 38 28 48 28 10 0 20 0 23 0 19 0 141
124 183 185 15 22 35 49 44 59 10 11 20 28 24 38 3 10 10 18 15 18 5 0 9 4 9
10 0 5 7 18 15 27 8 10 29 38 47 62 18 24 48 62 65 85 18 22 37 51 42 63 6 11
14 24 20 28 6 3 31 36 55 73 24 37 65 96 90 132 26 36 58 83 72 105 15 22 31
45 38 50 6 6 38 51 72 100 34 50 99 146 146 215 131 193 153 225 159 230 4 3
24 33 46 67 22 34 43 59 47 56 3 -4 6 0 6 8 0 8 18 40 40 73 22 32 40 65 40
72 0 8 5 14 11 14 5 0 8 4 5 9 -3 5 1 12 10 15 8 3 13 10 10 15 -4 5 -1 11 4
13 32 10 32 196 0 206 -6 2 -8 7 -5 12 6 10 -112 134 -143 150 -13 6 -31 18
-40 25 -46 38 -179 132 -194 138 -10 3 -18 11 -18 17 0 5 -5 10 -10 10 -6 0
-19 8 -30 18 -19 17 -18 19 27 86 25 37 51 70 58 73 7 2 28 -4 47 -13 18 -10
35 -19 38 -19 86 -16 105 -16 141 0 84 38 117 150 61 203 -39 37 -73 62 -99
75 -13 5 -23 13 -23 17 0 4 -13 13 -30 20 -16 7 -30 16 -30 20 0 6 -74 61
-129 95 -9 6 -18 13 -21 16 -18 23 -93 45 -162 47 -66 3 -83 0 -132 -24 -31
-15 -56 -31 -56 -36 0 -4 -6 -8 -12 -8 -7 0 -28 -23 -47 -50 -19 -28 -38 -50
-43 -50 -4 0 -7 -3 -6 -7 1 -5 -9 -25 -22 -45 -29 -44 -57 -49 -103 -16 -18
12 -34 25 -37 28 -3 4 -27 22 -55 40 -27 19 -55 39 -61 45 -7 5 -43 31 -80 57
-38 26 -109 77 -159 113 -49 35 -98 70 -109 77 -10 7 -29 21 -41 30 -13 10
-26 18 -29 18 -4 0 -19 13 -34 28 -15 15 -31 29 -37 31 -24 9 -79 48 -103 74
-9 9 -21 17 -27 17 -5 0 -23 11 -39 25 -16 14 -33 25 -38 25 -4 0 -16 8 -26
18 -10 9 -38 30 -62 47 -25 16 -47 33 -50 36 -3 3 -27 20 -55 39 -27 19 -52
36 -55 39 -3 4 -23 18 -45 33 -22 15 -58 41 -80 57 -22 17 -47 34 -55 38 -8 4
-24 15 -34 25 -11 10 -38 30 -60 45 -23 15 -80 56 -127 90 -48 35 -91 63 -96
63 -5 0 -15 9 -23 20 -8 11 -20 20 -27 20 -7 0 -13 3 -13 8 0 4 -9 12 -19 17
-27 14 -231 160 -258 185 -12 11 -25 20 -28 20 -3 0 -96 65 -208 145 -244 175
-247 177 -264 193 -7 7 -13 11 -13 7 0 -4 -7 0 -15 7 -8 7 -38 30 -67 51 -110
79 -203 147 -215 157 -7 6 -13 8 -13 5 0 -3 -10 4 -22 15 -13 12 -35 28 -50
36 -16 8 -28 18 -28 23 0 5 -8 11 -17 15 -22 7 -54 27 -68 42 -9 10 -69 53
-130 94 -12 8 -33 23 -46 33 -13 10 -62 46 -109 79 -47 33 -94 66 -105 74 -11
8 -51 37 -90 64 -38 27 -74 53 -80 58 -5 4 -35 25 -65 47 -30 22 -58 43 -61
48 -3 5 -8 7 -10 6 -2 -2 -39 23 -82 55 -74 54 -80 57 -121 51 -46 -7 -82 6
-123 44 -12 12 -25 21 -28 21 -8 0 -129 91 -137 104 -4 6 -8 7 -8 3 0 -5 -13
2 -29 15 -16 12 -46 34 -66 48 -20 14 -48 34 -63 45 -14 11 -76 55 -137 98
-60 43 -117 83 -125 90 -9 7 -45 32 -80 57 -36 24 -69 48 -75 53 -5 4 -41 30
-80 58 -38 28 -80 58 -92 67 -13 9 -131 94 -263 187 -241 171 -261 190 -229
222 11 11 -19 38 -126 110 -33 23 -70 50 -82 62 -12 12 -26 21 -30 21 -4 0
-42 25 -83 55 -41 30 -90 65 -108 77 -17 13 -40 29 -50 35 -22 16 -134 100
-147 111 -5 4 -26 17 -45 29 -20 12 -49 33 -65 48 -17 14 -38 28 -47 31 -10 3
-18 10 -18 15 0 5 -5 9 -10 9 -6 0 -23 11 -38 25 -15 14 -32 25 -39 25 -6 0
-13 3 -15 8 -5 12 -86 72 -97 72 -6 0 -11 3 -11 8 0 4 -21 20 -48 37 -26 16
-54 36 -62 44 -8 7 -107 78 -220 158 -113 80 -208 150 -212 156 -4 7 -8 8 -8
4 0 -5 -7 -2 -15 6 -8 8 -31 26 -52 38 -21 13 -47 31 -58 41 -11 9 -48 36 -82
60 -172 121 -260 184 -277 200 -11 10 -24 18 -28 18 -5 0 -21 11 -36 25 -15
14 -32 25 -38 25 -7 0 -14 7 -18 15 -3 8 -11 15 -18 15 -8 0 -28 14 -46 30
-18 17 -35 30 -37 30 -5 0 -101 67 -138 96 -15 12 -27 28 -27 35 0 8 18 37 40
64 22 28 40 55 40 61 0 6 13 24 30 40 16 16 30 34 30 41 0 6 3 13 8 15 4 2 34
43 67 92 l59 88 -26 22 c-42 34 -107 77 -112 74 -2 -2 -12 4 -22 13 -17 15
-45 27 -84 36 -32 8 -35 9 -45 14 -27 15 -215 -5 -227 -24 -4 -7 -8 -9 -8 -4
0 8 -72 -26 -98 -46 -29 -24 -68 -63 -105 -106 l-37 -45 -33 24 c-17 13 -43
32 -57 41 -14 10 -78 55 -142 101 -64 46 -126 90 -138 98 -35 24 -154 110
-171 123 -8 7 -23 17 -31 22 -42 27 -144 99 -148 105 -3 3 -27 22 -55 40 -27
19 -54 38 -60 42 -14 12 -232 166 -285 202 -47 32 -50 34 -89 66 -13 11 -28
20 -34 20 -5 0 -17 8 -26 18 -9 10 -44 38 -79 62 -43 30 -62 49 -58 59 2 9 11
34 20 57 15 42 8 110 -13 123 -11 7 -11 51 0 51 3 0 4 23 2 52 -4 51 -16 78
-35 78 -5 0 -14 5 -21 10 -47 40 -68 55 -109 83 -27 17 -48 34 -48 39 0 4 -7
8 -15 8 -8 0 -15 5 -15 10 0 6 -7 10 -15 10 -8 0 -20 9 -27 20 -7 11 -18 20
-25 20 -6 0 -41 -28 -77 -62 -123 -120 -144 -138 -156 -138 -9 0 -88 55 -137
95 -51 41 -114 82 -147 95 -41 15 -122 10 -176 -11z m3325 -5777 c1 -13 -2
-25 -7 -28 -4 -3 -8 -15 -8 -27 0 -13 -24 -97 -53 -187 -113 -348 -143 -470
-153 -621 -3 -52 -6 -96 -7 -99 -4 -19 16 -184 27 -220 21 -69 77 -213 89
-229 6 -7 16 -21 22 -31 5 -10 27 -49 48 -86 32 -56 91 -136 132 -179 29 -30
102 -75 122 -75 23 0 52 34 57 67 2 10 -1 33 -6 52 -5 18 -11 41 -13 50 -2 9
-20 70 -41 136 -34 114 -37 128 -39 274 -2 126 1 165 17 214 10 32 20 73 23
89 3 17 10 39 16 49 5 10 8 22 7 26 -2 8 24 66 41 93 6 8 31 51 57 95 52 89
173 219 246 265 l47 29 63 -44 c35 -24 88 -61 118 -82 30 -20 57 -40 58 -45 2
-4 8 -8 14 -8 6 0 32 -18 58 -40 26 -22 50 -40 54 -40 3 0 14 -7 23 -14 10 -8
61 -45 113 -82 52 -37 97 -71 98 -76 2 -4 8 -8 14 -8 9 0 67 -40 102 -72 11
-10 23 -18 26 -18 6 0 22 -12 67 -50 7 -5 15 -10 18 -10 7 0 131 -91 155 -113
8 -8 24 -17 35 -21 36 -11 101 -79 131 -136 16 -30 32 -57 35 -60 19 -16 38
-73 35 -102 -5 -32 -14 -124 -22 -221 -3 -43 -13 -70 -61 -176 -8 -18 -16 -39
-17 -45 -1 -6 -16 -40 -33 -76 -17 -36 -34 -76 -38 -90 -4 -14 -15 -34 -25
-45 -9 -11 -43 -58 -75 -105 -32 -46 -64 -90 -71 -98 -8 -7 -14 -16 -14 -20 0
-4 -11 -20 -25 -36 -14 -16 -25 -32 -25 -36 0 -9 -24 -33 -120 -120 -45 -41
-104 -96 -130 -122 -26 -27 -51 -48 -54 -48 -6 0 -83 -35 -203 -93 -63 -30
-63 -30 -135 -17 -40 8 -82 14 -93 14 -11 0 -22 3 -25 7 -3 4 -21 8 -40 10
-19 2 -37 6 -40 9 -17 18 -90 70 -99 70 -6 0 -11 3 -11 8 0 6 -28 27 -125 92
-45 30 -120 84 -125 89 -3 3 -29 22 -57 41 -29 19 -53 38 -53 43 0 4 -6 7 -13
7 -8 0 -22 9 -32 20 -10 11 -22 20 -27 20 -8 0 -80 52 -98 70 -3 3 -17 11 -32
19 -16 8 -28 18 -28 23 0 4 -6 8 -14 8 -8 0 -16 4 -18 8 -1 5 -32 29 -68 53
-36 24 -71 49 -78 56 -7 7 -17 13 -20 13 -4 0 -18 10 -32 23 -14 12 -37 28
-52 36 -16 8 -28 18 -28 23 0 4 -5 8 -11 8 -5 0 -45 26 -87 58 -43 32 -85 61
-95 65 -9 3 -17 11 -17 17 0 5 -6 10 -13 10 -7 0 -20 9 -30 20 -9 11 -23 20
-30 20 -7 0 -20 8 -29 18 -23 23 -41 38 -51 39 -5 1 -22 13 -38 27 -16 14 -32
26 -36 26 -3 0 -30 18 -59 40 -29 22 -58 40 -64 40 -6 0 -13 7 -16 15 -3 8
-14 17 -23 20 -10 3 -26 13 -37 23 -10 9 -39 31 -64 47 -25 17 -46 33 -48 38
-2 4 -8 7 -13 7 -6 0 -17 6 -25 13 -8 6 -20 17 -27 22 -7 6 -41 30 -77 55 -36
24 -70 49 -77 55 -36 30 -43 35 -50 35 -14 0 -83 64 -83 77 0 6 -6 13 -12 15
-21 7 -14 143 12 218 34 101 151 269 284 408 52 54 83 77 196 140 95 54 442
227 497 248 38 14 76 30 86 35 76 41 348 117 411 115 33 -1 40 -4 41 -24z"/>
</g>
</svg>
